<svg width="215" height="81" viewBox="0 0 215 81" fill="none" xmlns="http://www.w3.org/2000/svg">
<path d="M47.7241 39H44.0841L37.2841 29.76H29.0441V39H26.1641V13.32H36.5641C44.1641 13.32 46.5641 14.52 46.5641 21.56C46.5641 27.16 45.0441 29.04 40.6041 29.6L47.7241 39ZM29.0441 27.48H36.6441C41.6441 27.48 43.5641 27.16 43.5641 21.56C43.5641 15.72 41.6441 15.6 36.6441 15.6H29.0441V27.48ZM71.7219 39H52.9219V13.32H72.1219L71.7219 15.6H55.8019V24.56H68.7219V26.84H55.8019V36.68H72.1219L71.7219 39ZM95.6582 35.64L96.9782 37.76C94.7782 38.8 91.2982 39.52 87.5782 39.52C79.7382 39.52 74.6582 37.48 74.6582 26.16C74.6582 14.84 79.7382 12.8 87.5782 12.8C91.2982 12.8 94.3782 13.36 96.5782 14.4L95.2582 16.52C93.7382 16 90.8982 15.08 87.6582 15.08C81.8582 15.08 77.6182 16 77.6182 26.16C77.6182 36.4 81.8582 37.24 87.6582 37.24C90.8982 37.24 94.1382 36.16 95.6582 35.64ZM112.074 39H109.194V28.04C105.834 23.24 102.354 18.16 98.9538 13.32H102.394C104.154 15.84 105.914 18.56 107.674 21.12C108.714 22.64 109.954 24.72 110.874 26.2C111.674 24.84 112.994 22.68 114.194 20.96C115.914 18.4 117.754 15.84 119.514 13.32H122.674L112.074 28.04V39ZM144.877 35.64L146.197 37.76C143.997 38.8 140.517 39.52 136.797 39.52C128.957 39.52 123.877 37.48 123.877 26.16C123.877 14.84 128.957 12.8 136.797 12.8C140.517 12.8 143.597 13.36 145.797 14.4L144.477 16.52C142.957 16 140.117 15.08 136.877 15.08C131.077 15.08 126.837 16 126.837 26.16C126.837 36.4 131.077 37.24 136.877 37.24C140.117 37.24 143.357 36.16 144.877 35.64ZM168.533 39H150.813V13.32H153.653V36.68H168.933L168.533 39ZM190.902 39H172.102V13.32H191.302L190.902 15.6H174.982V24.56H187.902V26.84H174.982V36.68H191.302L190.902 39Z" fill="#FEFAE0"/>
<path d="M103.471 63H99.1509V51.444H103.291C106.819 51.444 109.105 52.056 109.105 57.15C109.105 62.298 107.107 63 103.471 63ZM100.447 61.956H103.291C106.621 61.956 107.773 61.452 107.773 57.132C107.773 52.56 105.865 52.47 103.255 52.47H100.447V61.956ZM120.885 61.362L121.479 62.316C120.489 62.784 118.491 63.234 116.817 63.234C113.235 63.234 111.183 62.334 111.183 57.366C111.183 52.182 113.451 51.21 116.655 51.21C120.093 51.21 122.037 52.344 122.037 57.078V57.546H112.515C112.587 61.506 113.775 62.208 117.087 62.208C118.545 62.208 120.201 61.596 120.885 61.362ZM112.533 56.502H120.669C120.525 52.794 119.211 52.218 116.655 52.218C114.441 52.218 112.713 52.416 112.533 56.502ZM128.233 63H126.937V52.47H122.851L123.031 51.444H132.553L132.373 52.47H128.233V63ZM142.981 61.362L143.575 62.316C142.585 62.784 140.587 63.234 138.913 63.234C135.331 63.234 133.279 62.334 133.279 57.366C133.279 52.182 135.547 51.21 138.751 51.21C142.189 51.21 144.133 52.344 144.133 57.078V57.546H134.611C134.683 61.506 135.871 62.208 139.183 62.208C140.641 62.208 142.297 61.596 142.981 61.362ZM134.629 56.502H142.765C142.621 52.794 141.307 52.218 138.751 52.218C136.537 52.218 134.809 52.416 134.629 56.502ZM155.367 61.488L155.961 62.442C154.971 62.91 153.405 63.234 151.731 63.234C148.203 63.234 145.917 62.316 145.917 57.222C145.917 52.128 148.203 51.21 151.731 51.21C153.405 51.21 154.791 51.462 155.781 51.93L155.187 52.884C154.503 52.65 153.225 52.236 151.767 52.236C149.157 52.236 147.249 52.65 147.249 57.222C147.249 61.83 149.157 62.208 151.767 62.208C153.225 62.208 154.683 61.722 155.367 61.488ZM162.124 63H160.828V52.47H156.742L156.922 51.444H166.444L166.264 52.47H162.124V63ZM172.912 52.218C170.554 52.218 168.448 52.236 168.448 57.204C168.448 62.172 170.554 62.19 172.912 62.19C175.234 62.19 177.376 62.172 177.376 57.204C177.376 52.236 175.198 52.218 172.912 52.218ZM167.116 57.204C167.116 52.02 169.708 51.21 172.912 51.21C176.116 51.21 178.708 52.02 178.708 57.204C178.708 62.388 176.116 63.198 172.912 63.198C169.708 63.198 167.116 62.388 167.116 57.204ZM191.233 62.046L191.035 63C189.829 63.18 189.091 62.964 187.741 61.146L186.049 58.842H185.725H182.359V63H181.063V51.444H185.725C189.145 51.444 190.225 51.984 190.225 55.152C190.225 57.672 189.541 58.518 187.543 58.77L188.929 60.57C190.027 61.992 190.513 62.136 191.233 62.046ZM182.359 57.816H185.761C188.029 57.816 188.875 57.672 188.875 55.152C188.875 52.524 188.029 52.47 185.761 52.47H182.359V57.816Z" fill="#FEFAE0"/>
<path fill-rule="evenodd" clip-rule="evenodd" d="M86.4419 74.9998V55.3378H82.4419V78.9998H83.5287H86.4419H108.776V74.9998H86.4419Z" fill="#FF7800"/>
<path fill-rule="evenodd" clip-rule="evenodd" d="M199.05 4V23.662H203.05V0L201.963 0L199.05 0L176.716 0V4L199.05 4Z" fill="#FF7800"/>
</svg>
