<svg width="91" height="83" viewBox="0 0 91 83" fill="none" xmlns="http://www.w3.org/2000/svg">
<rect x="2.5" y="2.5" width="86" height="78" rx="27.5" stroke="#FF7800" stroke-width="5"/>
<mask id="path-2-inside-1_104_113" fill="white">
<path fill-rule="evenodd" clip-rule="evenodd" d="M51.7705 54.3401L45.5002 62.626L39.2299 54.3401L14 21L26.5406 21L45.5002 46.0542L64.4599 21H77.0005L51.7705 54.3401Z"/>
</mask>
<path d="M45.5002 62.626L43.108 64.4363L45.5002 67.5975L47.8925 64.4363L45.5002 62.626ZM51.7705 54.3401L54.1628 56.1504L54.1628 56.1504L51.7705 54.3401ZM39.2299 54.3401L41.6222 52.5298L41.6222 52.5298L39.2299 54.3401ZM14 21V18H7.96757L11.6077 22.8103L14 21ZM26.5406 21L28.9328 19.1897L28.0325 18H26.5406V21ZM45.5002 46.0542L43.108 47.8645L45.5002 51.0258L47.8925 47.8645L45.5002 46.0542ZM64.4599 21L64.4599 18H62.968L62.0677 19.1897L64.4599 21ZM77.0005 21L79.3927 22.8103L83.0329 18H77.0005V21ZM47.8925 64.4363L54.1628 56.1504L49.3783 52.5298L43.108 60.8157L47.8925 64.4363ZM36.8377 56.1504L43.108 64.4363L47.8925 60.8157L41.6222 52.5298L36.8377 56.1504ZM11.6077 22.8103L36.8377 56.1504L41.6222 52.5298L16.3922 19.1897L11.6077 22.8103ZM26.5406 18L14 18V24L26.5406 24V18ZM24.1483 22.8103L43.108 47.8645L47.8925 44.2439L28.9328 19.1897L24.1483 22.8103ZM47.8925 47.8645L66.8521 22.8103L62.0677 19.1897L43.108 44.2439L47.8925 47.8645ZM77.0005 18H64.4599L64.4599 24H77.0005V18ZM54.1628 56.1504L79.3927 22.8103L74.6083 19.1897L49.3783 52.5298L54.1628 56.1504Z" fill="#FF7800" mask="url(#path-2-inside-1_104_113)"/>
</svg>
