<svg width="91" height="83" viewBox="0 0 91 83" fill="none" xmlns="http://www.w3.org/2000/svg">
<rect x="88.5" y="80.5" width="86" height="78" rx="27.5" transform="rotate(180 88.5 80.5)" stroke="#FF7800" stroke-width="5"/>
<mask id="path-2-inside-1_109_133" fill="white">
<path fill-rule="evenodd" clip-rule="evenodd" d="M39.2295 28.6599L45.4998 20.374L51.7701 28.6599L77 62L64.4594 62L45.4998 36.9458L26.5401 62L13.9995 62L39.2295 28.6599Z"/>
</mask>
<path d="M45.4998 20.374L47.892 18.5637L45.4998 15.4025L43.1075 18.5637L45.4998 20.374ZM39.2295 28.6599L36.8372 26.8496L36.8372 26.8496L39.2295 28.6599ZM51.7701 28.6599L49.3778 30.4702L49.3778 30.4702L51.7701 28.6599ZM77 62V65H83.0324L79.3923 60.1897L77 62ZM64.4594 62L62.0672 63.8103L62.9675 65H64.4594V62ZM45.4998 36.9458L47.892 35.1355L45.4998 31.9742L43.1075 35.1355L45.4998 36.9458ZM26.5401 62V65H28.032L28.9323 63.8103L26.5401 62ZM13.9995 62L11.6073 60.1897L7.9671 65H13.9995L13.9995 62ZM43.1075 18.5637L36.8372 26.8496L41.6217 30.4702L47.892 22.1843L43.1075 18.5637ZM54.1623 26.8496L47.892 18.5637L43.1075 22.1843L49.3778 30.4702L54.1623 26.8496ZM79.3923 60.1897L54.1623 26.8496L49.3778 30.4702L74.6078 63.8103L79.3923 60.1897ZM64.4594 65L77 65V59L64.4594 59V65ZM66.8517 60.1897L47.892 35.1355L43.1075 38.7561L62.0672 63.8103L66.8517 60.1897ZM43.1075 35.1355L24.1479 60.1897L28.9323 63.8103L47.892 38.7561L43.1075 35.1355ZM13.9995 65H26.5401V59L13.9995 59L13.9995 65ZM36.8372 26.8496L11.6073 60.1897L16.3917 63.8103L41.6217 30.4702L36.8372 26.8496Z" fill="#FF7800" mask="url(#path-2-inside-1_109_133)"/>
</svg>
